<?xml version="1.0" encoding="UTF-8" standalone="no"?>
<!DOCTYPE svg PUBLIC "-//W3C//DTD SVG 1.1//EN" "http://www.w3.org/Graphics/SVG/1.1/DTD/svg11.dtd">
<svg width="100%" height="100%" viewBox="0 0 2200 1400" version="1.1" xmlns="http://www.w3.org/2000/svg" xmlns:xlink="http://www.w3.org/1999/xlink" xml:space="preserve" xmlns:serif="http://www.serif.com/" style="fill-rule:evenodd;clip-rule:evenodd;stroke-linejoin:round;stroke-miterlimit:2;">
    <g transform="matrix(1,0,0,1,-200,-100)">
        <path d="M1831.41,805.767C1878.48,807.288 1930.6,806.982 2011.2,803.315C2018.83,769.946 2022.69,742.178 2022.69,707.125C2022.69,381.976 1680.9,118.406 1259.28,118.406C915.213,118.406 651.218,287.982 537.645,480.953C783.788,604.169 1264.66,787.45 1831.41,805.767M483.878,626.341C483.878,626.341 470.693,662.905 469.377,695.796C458.567,966.126 732.512,1205.61 1054.88,1274.53C1054.88,1274.53 1057.48,1275.12 1058.28,1275.31C1119.84,1286.16 1182.67,1293.72 1248.78,1293.72C1356.01,1293.72 1458.28,1278.47 1552.06,1251C1552.55,1250.84 1553.05,1250.72 1553.53,1250.56C1733.07,1192.67 1888.27,1084.58 1967.35,947.766C1657.66,958.727 1099.17,934.14 483.878,626.341Z" style="fill:url(#_Radial1);fill-rule:nonzero;"/>
        <path d="M1371.77,1267.32C1371.77,1267.32 1690.51,1448.61 1928.49,1483.08C1928.49,1483.08 1763.23,1290.41 1767.68,1126.67C1772.13,962.923 1371.77,1267.32 1371.77,1267.32Z" style="fill:url(#_Radial2);fill-rule:nonzero;"/>
        <path d="M738.31,249.443C424.842,226.908 275.606,254.478 238.626,332.423C181.931,451.922 644.548,720.484 1238.21,840.752C1831.87,961.02 2342.17,920.172 2384.39,779.85C2410.01,694.748 2305.99,614.796 2004.86,510.641C2015.19,532.789 2019.63,548.477 2027.04,571.722C2243.08,649.513 2314.24,700.901 2295.78,749.926C2253.44,862.426 1738.69,874.082 1264.11,777.94C789.538,681.798 299.123,447.843 341.731,348.149C357.73,310.719 453.061,277.768 680.875,286.561C701.164,271.093 721.9,258.039 738.31,249.443Z" style="fill:url(#_Radial3);"/>
    </g>
    <defs>
        <radialGradient id="_Radial1" cx="0" cy="0" r="1" gradientUnits="userSpaceOnUse" gradientTransform="matrix(850.016,168.391,-106.674,538.479,1317.65,461.561)"><stop offset="0" style="stop-color:rgb(35,89,201);stop-opacity:1"/><stop offset="1" style="stop-color:rgb(24,156,222);stop-opacity:1"/></radialGradient>
        <radialGradient id="_Radial2" cx="0" cy="0" r="1" gradientUnits="userSpaceOnUse" gradientTransform="matrix(850.016,168.391,-106.674,538.479,1317.65,461.561)"><stop offset="0" style="stop-color:rgb(35,89,201);stop-opacity:1"/><stop offset="1" style="stop-color:rgb(24,156,222);stop-opacity:1"/></radialGradient>
        <radialGradient id="_Radial3" cx="0" cy="0" r="1" gradientUnits="userSpaceOnUse" gradientTransform="matrix(850.016,168.391,-106.674,538.479,1317.65,461.561)"><stop offset="0" style="stop-color:rgb(35,89,201);stop-opacity:1"/><stop offset="1" style="stop-color:rgb(24,156,222);stop-opacity:1"/></radialGradient>
    </defs>
</svg>
